<svg version="1.1" id="Layer_1" xmlns="http://www.w3.org/2000/svg" xmlns:xlink="http://www.w3.org/1999/xlink" x="0px" y="0px"
	 width="100%" viewBox="0 0 150 150" enable-background="new 0 0 150 150" xml:space="preserve">
<path fill="#010101" opacity="1.000000" stroke="none" 
	d="
M100.000000,151.000000 
	C67.833336,151.000000 36.166443,150.948120 4.500365,151.084717 
	C1.516186,151.097580 0.909312,150.482834 0.916707,147.499786 
	C1.034885,99.833420 1.034886,52.166580 0.916707,4.500206 
	C0.909312,1.517179 1.517179,0.909312 4.500206,0.916708 
	C52.166580,1.034884 99.833420,1.034884 147.499786,0.916708 
	C150.482834,0.909312 151.090683,1.517179 151.083298,4.500206 
	C150.965118,52.166580 150.965118,99.833420 151.083298,147.499786 
	C151.090698,150.482834 150.487732,151.123672 147.498947,151.087830 
	C131.834534,150.899948 116.166664,151.000000 100.000000,151.000000 
z"/>
<path fill="#FBFBFB" opacity="1.000000" stroke="none" 
	d="
M71.998016,47.878311 
	C63.848225,51.261208 56.068874,54.520844 48.303188,57.812717 
	C42.640999,60.212917 41.120701,62.671211 42.824055,66.550148 
	C44.584675,70.559502 48.923676,72.049034 53.794579,70.036644 
	C61.587376,66.817062 69.309532,63.426449 77.059990,60.104481 
	C80.072746,58.813175 83.062271,58.441696 86.201149,59.833973 
	C89.542274,61.315964 91.687706,63.760201 91.845543,67.363731 
	C92.000206,70.894737 89.864067,73.277122 86.663704,74.537842 
	C75.910294,78.773926 65.964050,85.139168 54.490856,87.428932 
	C40.808334,90.159637 26.418753,80.669502 23.782190,67.614372 
	C22.167982,59.621498 25.661606,50.314579 33.683640,46.552471 
	C48.304405,39.695744 62.755627,31.753614 79.066025,29.691874 
	C100.291779,27.008801 125.199791,41.367558 128.438995,65.365044 
	C130.210007,78.485458 122.751320,92.282326 109.317612,99.054565 
	C101.489014,103.001144 93.448128,106.526604 85.138313,110.411934 
	C86.544716,112.571053 87.934654,114.705528 89.325233,116.839577 
	C92.623337,121.901009 92.272293,125.964882 88.258888,129.179810 
	C84.420700,132.254379 77.828545,132.091080 74.778503,127.975563 
	C69.154579,120.387032 64.152702,112.338448 58.861259,104.502068 
	C56.897209,101.593399 60.054142,101.892830 61.019794,101.449661 
	C72.595627,96.137108 84.273430,91.047440 95.876083,85.792419 
	C107.200989,80.663170 111.704033,73.434967 109.990715,63.453705 
	C108.394325,54.153606 98.267944,45.730392 87.825905,44.931469 
	C82.409081,44.517017 77.222244,45.173851 71.998016,47.878311 
z"/>
</svg>