<svg version="1.1" id="Layer_1" xmlns="http://www.w3.org/2000/svg" xmlns:xlink="http://www.w3.org/1999/xlink" x="0px" y="0px"
	 width="100%" viewBox="0 0 512 512" enable-background="new 0 0 512 512" xml:space="preserve">
<path fill="#02579B" opacity="1.000000" stroke="none" 
	d="
M512.758423,93.708702 
	C513.000000,202.354233 513.000000,310.708466 513.000000,419.531342 
	C512.216187,420.748047 512.025146,421.706360 512.015076,422.735870 
	C511.905670,433.904510 507.422424,443.683594 502.379272,453.307739 
	C493.090088,471.034790 480.149139,485.604767 463.437439,496.459961 
	C450.445007,504.899261 436.636871,511.900055 420.291321,512.758423 
	C311.645782,513.000000 203.291550,513.000000 94.468658,513.000000 
	C93.626541,512.666016 93.219193,512.225586 92.753555,512.215271 
	C79.019989,511.913452 67.194443,506.190948 55.649120,499.453125 
	C43.939499,492.619446 33.702847,484.098206 25.141829,473.618652 
	C15.632576,461.978394 8.195048,449.136597 3.561411,434.778015 
	C2.078931,430.184143 2.569127,425.259064 1.241583,420.291534 
	C1.000000,311.645782 1.000000,203.291550 1.000000,94.468658 
	C1.591517,93.373825 1.928852,92.643539 1.959257,91.770622 
	C2.589949,73.664246 11.486926,58.957279 21.644033,44.915253 
	C33.553425,28.450716 49.369240,16.697674 67.647339,8.049212 
	C75.842018,4.171823 84.477379,2.297537 93.708534,1.241575 
	C202.354233,1.000000 310.708466,1.000000 419.531342,1.000000 
	C420.748016,1.783907 421.706451,1.974839 422.735901,1.984945 
	C433.904449,2.094587 443.683563,6.577636 453.307739,11.620792 
	C471.034790,20.909927 485.604736,33.850929 496.459961,50.562561 
	C504.899323,63.554958 511.900024,77.363174 512.758423,93.708702 
z"/>
<path fill="#000000" opacity="1.000000" stroke="none" 
	d="
M513.000000,93.531342 
	C510.317688,94.346092 511.270752,92.239403 511.002228,90.998108 
	C508.604340,79.913277 504.602753,69.598335 498.889984,59.652813 
	C495.360138,53.507561 491.644470,47.506653 487.254974,42.128307 
	C482.182190,35.912785 476.248230,30.450781 469.778076,25.372879 
	C462.179962,19.409714 454.104126,14.592825 445.572723,10.493317 
	C437.944305,6.827691 430.032806,3.550337 421.378143,2.869427 
	C420.848206,2.827736 420.366180,2.177305 419.930908,1.405054 
	C449.763000,1.000000 479.526306,1.060292 509.288574,0.912511 
	C512.482361,0.896652 513.088867,1.727028 513.075806,4.771649 
	C512.949524,34.201561 513.000000,63.632229 513.000000,93.531342 
z"/>
<path fill="#000000" opacity="1.000000" stroke="none" 
	d="
M420.468658,513.000000 
	C419.632355,510.789886 421.311432,511.228119 422.535950,511.000763 
	C433.862915,508.897491 444.253632,504.694489 454.308990,498.902527 
	C460.462189,495.358215 466.366119,491.561981 471.824615,487.192047 
	C478.109497,482.160553 483.511230,476.242889 488.589813,469.797272 
	C494.265839,462.593414 498.866974,454.934174 502.924683,446.903870 
	C506.976288,438.885773 510.245697,430.481903 511.130768,421.372162 
	C511.182739,420.837646 511.823181,420.360321 512.594849,419.928192 
	C513.000000,449.763000 512.939697,479.526306 513.087463,509.288574 
	C513.103333,512.482361 512.272949,513.088806 509.228333,513.075745 
	C479.798431,512.949463 450.367767,513.000000 420.468658,513.000000 
z"/>
<path fill="#000000" opacity="1.000000" stroke="none" 
	d="
M1.000000,420.468658 
	C2.793111,419.547546 2.768466,420.825043 2.986966,421.999298 
	C5.169861,433.730621 9.423101,444.463135 15.484835,454.932251 
	C20.633623,463.824677 26.554947,471.899628 33.327610,479.362091 
	C37.929085,484.432281 43.600574,488.479706 49.343174,492.426117 
	C54.933804,496.268127 60.709949,499.489380 66.733910,502.535309 
	C74.991959,506.710907 83.445915,509.902466 92.628860,511.128235 
	C93.172295,511.200775 93.642136,511.824615 94.073105,512.595947 
	C64.237000,513.000000 34.473694,512.939697 4.711424,513.087524 
	C1.517625,513.103333 0.911169,512.272949 0.924233,509.228333 
	C1.050515,479.798431 1.000000,450.367767 1.000000,420.468658 
z"/>
<path fill="#000000" opacity="1.000000" stroke="none" 
	d="
M93.531342,1.000000 
	C94.357262,3.206353 92.680923,2.764462 91.455437,3.000303 
	C79.820297,5.239452 69.065590,9.543437 58.717422,15.430007 
	C49.801373,20.501913 41.722164,26.575624 34.407280,33.529976 
	C29.451099,38.241879 25.378172,43.932842 21.360727,49.638115 
	C16.549473,56.470688 11.996115,63.386517 9.118597,71.126923 
	C6.525609,78.101952 3.065618,84.937881 2.864033,92.663071 
	C2.850636,93.176476 2.176128,93.672623 1.404560,94.088402 
	C1.000000,64.236992 1.060294,34.473694 0.912509,4.711419 
	C0.896650,1.517608 1.727070,0.911171 4.771661,0.924235 
	C34.201569,1.050512 63.632233,1.000000 93.531342,1.000000 
z"/>
<path fill="#F9F8EC" opacity="1.000000" stroke="none" 
	d="
M229.815887,408.453979 
	C226.799698,423.564697 214.625015,433.264465 200.991928,431.796661 
	C186.210632,430.205231 176.262924,418.934418 176.254440,403.530579 
	C176.221207,343.204437 176.083466,282.877777 176.283813,222.552292 
	C176.517639,152.143570 229.304153,91.634560 299.331177,83.465729 
	C356.865082,76.754265 403.504913,98.016747 435.410828,146.319214 
	C465.350342,191.644791 467.599396,240.495789 442.349213,288.631256 
	C417.539429,335.927246 377.007446,361.187927 323.467896,364.273285 
	C290.895233,366.150421 261.339600,356.804199 234.790558,337.874176 
	C233.623062,337.041718 232.444412,335.224365 231.034210,335.939697 
	C229.335815,336.801270 230.191376,338.959076 230.181992,340.534119 
	C230.048035,363.027527 229.977829,385.521271 229.815887,408.453979 
z"/>
<path fill="#FAFAEE" opacity="1.000000" stroke="none" 
	d="
M82.059601,342.000000 
	C82.061623,304.849243 82.015541,268.198395 82.089630,231.547760 
	C82.118752,217.144608 90.777306,206.265274 103.841057,203.794388 
	C120.646004,200.615860 135.748520,212.854233 135.889328,230.063370 
	C136.058350,250.719711 135.938782,271.378448 135.938248,292.036163 
	C135.937286,329.686493 135.988159,367.336945 135.895615,404.987030 
	C135.866272,416.926514 128.205887,427.143341 117.145309,430.632935 
	C106.201347,434.085785 94.286850,430.157745 87.349983,420.829559 
	C83.401253,415.519623 82.046021,409.468018 82.054070,402.973816 
	C82.079063,382.815918 82.060974,362.657928 82.059601,342.000000 
z"/>
<path fill="#F9F9EE" opacity="1.000000" stroke="none" 
	d="
M79.187080,154.455261 
	C75.712219,130.254578 98.802147,112.717537 120.477547,121.407059 
	C133.288803,126.542992 141.004456,140.066574 138.967972,153.528793 
	C136.779434,167.996155 125.739632,178.286987 110.961014,179.635681 
	C97.963844,180.821808 84.914185,172.109909 80.431442,159.219894 
	C79.941269,157.810425 79.628357,156.339279 79.187080,154.455261 
z"/>
<path fill="#04599C" opacity="1.000000" stroke="none" 
	d="
M348.218262,187.741653 
	C363.147827,201.689331 368.069641,218.507446 362.220673,237.501694 
	C356.731598,255.327347 343.923706,266.370605 325.475739,269.606506 
	C303.262146,273.502960 282.920441,261.951508 274.076111,241.331482 
	C265.870544,222.200653 272.128723,198.861237 288.878967,186.125443 
	C306.798645,172.500488 329.788269,173.041183 348.218262,187.741653 
z"/>
<path fill="#FCCA3D" opacity="1.000000" stroke="none" 
	d="
M198.338440,177.337158 
	C203.083862,165.025833 203.096146,165.004532 213.924133,171.247299 
	C228.634293,179.728348 243.280777,188.321259 258.057129,196.684937 
	C261.051147,198.379623 262.066193,199.975266 260.657227,203.348465 
	C259.388855,206.385071 258.605377,209.691223 258.087921,212.954590 
	C257.621521,215.895935 256.238647,216.767288 253.414886,216.755966 
	C233.764725,216.677292 214.113586,216.643005 194.464096,216.783508 
	C190.853638,216.809341 189.804932,215.521851 190.153091,212.107498 
	C191.358887,200.282745 193.903778,188.787643 198.338440,177.337158 
z"/>
<path fill="#D92C49" opacity="1.000000" stroke="none" 
	d="
M347.699402,157.741989 
	C342.095856,167.162552 342.096130,167.161438 332.060242,164.737854 
	C330.769562,164.426163 329.479340,163.905029 328.180206,163.876312 
	C324.862366,163.802963 324.098663,162.048111 324.112518,159.033585 
	C324.202759,139.405472 324.237274,119.776154 324.090149,100.148735 
	C324.062256,96.426308 325.460358,95.676895 328.828033,96.016716 
	C343.680573,97.515427 357.866119,101.311172 371.482971,107.455864 
	C374.836761,108.969284 375.117554,110.339256 373.327118,113.383537 
	C364.731903,127.998093 356.333832,142.728607 347.699402,157.741989 
z"/>
<path fill="#DE5C3E" opacity="1.000000" stroke="none" 
	d="
M265.788757,120.270294 
	C259.291168,109.191116 259.274323,109.149620 270.927307,104.422371 
	C282.269287,99.821266 294.110107,97.307442 306.259613,96.014877 
	C309.743500,95.644234 310.973541,96.643295 310.948486,100.261375 
	C310.813446,119.748123 310.835999,139.236542 310.934540,158.723740 
	C310.950653,161.907364 310.232819,163.740570 306.647888,163.939224 
	C304.360779,164.065994 301.871368,164.494736 299.898407,165.569519 
	C294.745392,168.376633 292.227936,166.595367 289.579651,161.736328 
	C282.013794,147.854538 273.870697,134.287384 265.788757,120.270294 
z"/>
<path fill="#1ECAC5" opacity="1.000000" stroke="none" 
	d="
M335.023804,281.205658 
	C340.204620,278.397736 342.777893,280.028839 345.398193,284.796906 
	C354.286194,300.970428 363.665436,316.876495 373.019165,332.789429 
	C374.936707,336.051697 374.999542,337.691193 371.079651,339.428131 
	C357.727875,345.344482 343.908752,349.197540 329.358185,350.590912 
	C325.554901,350.955139 324.021118,350.215912 324.066284,345.965912 
	C324.271393,326.668243 324.223328,307.366699 324.091125,288.067780 
	C324.068848,284.811249 324.933350,283.121368 328.347137,282.806610 
	C330.473724,282.610565 332.546356,281.829102 335.023804,281.205658 
z"/>
<path fill="#6A6EAF" opacity="1.000000" stroke="none" 
	d="
M414.318420,175.281921 
	C419.107941,172.520538 423.637482,170.035751 428.022736,167.318161 
	C430.386841,165.853104 431.750000,165.988846 433.018341,168.689453 
	C439.528442,182.550766 443.389862,197.099503 444.879059,212.322830 
	C445.186890,215.469788 444.377350,216.786560 440.908478,216.762848 
	C421.253632,216.628632 401.597107,216.652664 381.941772,216.746796 
	C378.935699,216.761185 377.212769,215.980194 376.979828,212.722672 
	C376.728577,209.208862 375.673187,205.827560 374.246918,202.640579 
	C373.015900,199.889938 373.839539,198.554276 376.336945,197.142761 
	C388.947113,190.015488 401.454712,182.706711 414.318420,175.281921 
z"/>
<path fill="#729441" opacity="1.000000" stroke="none" 
	d="
M293.470856,279.655609 
	C298.634460,280.758728 303.442291,282.057678 308.294434,283.161621 
	C310.356262,283.630676 310.898956,284.785919 310.895813,286.705353 
	C310.862579,307.021851 310.856934,327.338501 310.894653,347.654999 
	C310.899200,350.091949 309.776306,350.890320 307.506561,350.726440 
	C291.715820,349.586121 276.729645,345.453064 262.410767,338.756592 
	C260.216888,337.730591 259.947479,336.483673 261.136963,334.457489 
	C271.828979,316.244843 282.474091,298.004639 293.470856,279.655609 
z"/>
<path fill="#F47F26" opacity="1.000000" stroke="none" 
	d="
M240.086639,170.863525 
	C231.401733,165.858047 223.101669,160.910675 214.629837,156.277374 
	C211.454926,154.540985 210.565308,153.186218 212.950027,149.902618 
	C221.847626,137.651215 232.390823,127.138145 244.710403,118.348106 
	C247.018127,116.701538 248.306213,116.815697 249.766922,119.368057 
	C259.775146,136.855652 269.864197,154.297241 280.005005,171.708328 
	C281.251556,173.848572 281.143829,175.266708 279.067352,176.741150 
	C277.451294,177.888672 276.051636,179.361694 274.642853,180.776733 
	C268.290344,187.157425 268.301880,187.167938 260.301880,182.544128 
	C253.669464,178.710754 247.036133,174.878967 240.086639,170.863525 
z"/>
<path fill="#95BD3D" opacity="1.000000" stroke="none" 
	d="
M255.139954,267.164368 
	C258.922211,265.009003 262.421875,263.090637 265.821075,261.008301 
	C267.884338,259.744324 269.380951,259.862122 270.903961,261.896545 
	C272.290131,263.748169 273.953705,265.411316 275.616180,267.033356 
	C281.319183,272.597626 281.343689,272.579224 277.210571,279.746002 
	C268.326996,295.150024 259.290131,310.468689 250.652039,326.009094 
	C248.361969,330.129059 246.671646,329.992584 243.257736,327.436554 
	C231.587830,318.699036 221.305634,308.674652 212.824265,296.778564 
	C210.762756,293.887115 211.039108,292.500092 214.204391,290.721039 
	C227.821457,283.067413 241.291458,275.152161 255.139954,267.164368 
z"/>
<path fill="#3283D4" opacity="1.000000" stroke="none" 
	d="
M387.173767,255.811401 
	C386.420044,255.388870 385.966705,255.165070 385.567596,254.868393 
	C381.655548,251.960388 374.864624,251.243454 373.954102,246.580063 
	C373.145813,242.440170 376.699463,237.576431 377.237061,232.727158 
	C377.468170,230.642792 378.955383,230.123260 380.832886,230.124710 
	C401.155090,230.140411 421.477356,230.148956 441.799500,230.114944 
	C444.157318,230.110992 445.091339,231.053635 444.900848,233.428009 
	C443.621460,249.373245 439.518982,264.536133 432.533722,278.932220 
	C430.991394,282.110870 429.294312,280.052551 427.744659,279.164276 
	C414.312531,271.464691 400.910431,263.712708 387.173767,255.811401 
z"/>
<path fill="#DBEA82" opacity="1.000000" stroke="none" 
	d="
M257.588074,232.490631 
	C258.371002,236.835907 259.175385,240.764740 260.796631,244.429443 
	C261.816406,246.734482 261.273926,248.082962 259.158020,249.298935 
	C241.569504,259.406494 224.004059,269.554321 206.460205,279.739197 
	C204.401382,280.934448 203.217819,280.581879 202.163910,278.428497 
	C195.352219,264.510895 191.777496,249.726654 190.130402,234.401657 
	C189.776031,231.104446 191.218781,230.016312 194.415344,230.029770 
	C213.877518,230.111771 233.340195,230.064819 252.802704,230.080078 
	C254.615509,230.081497 256.564514,229.902908 257.588074,232.490631 
z"/>
<path fill="#EF687F" opacity="1.000000" stroke="none" 
	d="
M365.649170,186.405426 
	C362.463684,183.224457 359.774872,180.000214 356.609772,177.343414 
	C353.977570,175.133926 354.070190,173.351227 355.680511,170.603027 
	C365.433380,153.958755 375.122742,137.275391 384.610748,120.479347 
	C386.622864,116.917427 388.187927,116.691406 391.394012,119.063072 
	C403.264618,127.844223 413.651459,138.024216 422.154663,150.120361 
	C423.681122,152.291824 424.584106,153.892593 421.492706,155.656174 
	C404.015442,165.626694 386.618073,175.737274 369.185944,185.786957 
	C368.197388,186.356873 367.213013,187.095657 365.649170,186.405426 
z"/>
<path fill="#59A9F9" opacity="1.000000" stroke="none" 
	d="
M413.058289,308.043732 
	C406.208130,315.852844 398.665009,322.340698 390.533081,328.205597 
	C388.044037,330.000763 386.768646,329.866486 385.191528,327.105377 
	C375.290375,309.770874 365.266418,292.506134 355.206146,275.263214 
	C353.874817,272.981384 353.968414,271.471436 356.181274,269.791626 
	C358.417938,268.093750 360.722748,266.212128 362.250793,263.914307 
	C364.973389,259.820129 367.515472,259.732086 371.636536,262.196930 
	C387.910858,271.930817 404.354065,281.386902 420.855560,290.732513 
	C424.193726,292.623077 424.148529,294.243744 421.984161,296.845337 
	C419.007324,300.423431 416.174500,304.121368 413.058289,308.043732 
z"/>
</svg>